PathFileType	3	(X/Y/Z)	RCH0000002 BBF 04.c3d
DataRate	CameraRate	NumFrames	NumMarkers	Units	OrigDataRate	OrigDataStartFrame	OrigNumFrames
100.0	100.0	5	23	mm	100.0	270	346
Frame#	Time	T2			MAN			RASI			LPAT			LKNE			LANK			LMED			LHEE			LTOE			RPAT			RKNE			LASI			T10			RPSI			RANK			RTOE			RMED			RHEE			LPSI			RTHI			LTHI			RTIB			LTIB			
		X1	Y1	Z1	X2	Y2	Z2	X3	Y3	Z3	X4	Y4	Z4	X5	Y5	Z5	X6	Y6	Z6	X7	Y7	Z7	X8	Y8	Z8	X9	Y9	Z9	X10	Y10	Z10	X11	Y11	Z11	X12	Y12	Z12	X13	Y13	Z13	X14	Y14	Z14	X15	Y15	Z15	X16	Y16	Z16	X17	Y17	Z17	X18	Y18	Z18	X19	Y19	Z19	X20	Y20	Z20	X21	Y21	Z21	X22	Y22	Z22	X23	Y23	Z23	

270	2.690	-1661.26248	27.62653	954.82636	-1528.80878	41.20735	927.21315	-1530.42648	-40.96016	621.01132	-1634.61941	99.99126	341.02090	-1696.27347	154.19822	324.14562	-1862.16425	166.09442	101.90646	-1850.79101	97.56039	113.96754	-1881.20247	126.24201	147.55336	-1820.91999	130.27763	72.04164	-1435.08106	23.48084	375.52217	-1462.66505	-40.15574	333.67061	-1575.98873	131.41430	627.74023	-1646.92912	18.13273	766.77463	-1652.98345	-22.74952	670.01106	-1518.32255	-93.76108	75.85841	-1480.15564	-52.16690	68.95419	-1541.43849	-26.57858	79.80583	-1568.07204	-68.71153	104.41961	-1669.24185	45.40515	673.66002	-1478.06215	-109.15494	444.87041	-1672.22191	216.70063	450.77502	-1474.00553	-125.95729	237.19872	-1769.22088	223.25545	234.34979	
271	2.700	-1651.13410	26.80535	954.68415	-1518.39046	40.23838	928.09840	-1520.33496	-43.26234	624.13428	-1616.87088	95.42792	337.89359	-1677.91520	149.96165	320.38422	-1849.91614	164.00687	106.37287	-1840.25160	95.19906	117.62098	-1867.87650	124.48068	152.51850	-1811.68153	127.50142	74.56928	-1430.72037	18.98063	375.72924	-1459.13591	-43.96184	334.35206	-1564.63459	128.93904	625.04401	-1636.10635	19.77635	766.97997	-1642.49180	-22.19659	672.91225	-1517.28798	-95.27257	75.94304	-1479.59143	-53.26481	68.89327	-1540.72752	-28.24291	80.76124	-1566.76834	-70.65600	105.17368	-1658.40883	46.04540	673.74836	-1471.71443	-113.02115	445.72401	-1656.57105	212.60044	447.33588	-1470.87827	-129.01324	236.33637	-1750.97269	219.68176	233.35356	
272	2.710	-1641.08536	26.06574	954.65024	-1508.06054	39.33103	929.07584	-1510.32570	-45.56918	627.26641	-1599.21208	90.90736	335.05818	-1659.66679	145.76647	316.89269	-1837.57096	161.83162	110.81250	-1829.45387	92.75596	121.21491	-1854.45774	122.56470	157.37771	-1802.14933	124.73949	77.13522	-1426.56628	14.54028	375.90368	-1455.81537	-47.76136	335.03014	-1553.33284	126.46705	622.54871	-1625.35669	21.36469	767.28949	-1632.06143	-21.69599	675.85181	-1516.30834	-96.75672	76.00086	-1479.05985	-54.34413	68.83351	-1540.06147	-29.87170	81.68425	-1565.54519	-72.57010	105.87912	-1647.61970	46.63098	673.97564	-1465.50926	-116.85001	446.57482	-1640.98874	208.56156	444.14596	-1467.95065	-132.04980	235.48598	-1732.92363	216.09333	232.57969	
273	2.720	-1631.16278	25.47622	954.82501	-1497.87503	38.54079	930.22669	-1500.45745	-47.88469	630.41536	-1581.67658	86.48143	332.79086	-1641.57935	141.65378	313.92078	-1824.95952	159.47454	115.17445	-1818.08629	90.14537	124.68065	-1840.78741	120.34417	162.01456	-1791.97520	121.98574	79.75834	-1422.79493	10.21039	376.02683	-1452.88217	-51.54488	335.71051	-1542.10907	124.00324	620.43691	-1614.72798	22.84604	767.79800	-1621.73109	-21.28961	678.86132	-1515.42928	-98.18173	76.01918	-1478.58464	-55.38392	68.78011	-1539.47158	-31.42674	82.55457	-1564.46767	-74.41545	106.50368	-1636.89623	47.11828	674.46357	-1459.57215	-120.60857	447.42274	-1625.50582	204.64577	441.43155	-1465.40016	-135.04599	234.66805	-1715.18868	212.47554	232.21657	
274	2.730	-1621.39332	25.08751	955.28876	-1487.86918	37.91106	931.61491	-1490.77022	-50.21163	633.58668	-1564.27352	82.20897	331.31090	-1623.68153	137.66234	311.66648	-1811.91996	156.84509	119.39519	-1805.87027	87.28752	127.94567	-1826.71138	117.68537	166.31710	-1780.85207	119.22055	82.43597	-1419.54106	6.03155	376.09693	-1450.47142	-55.29811	336.40582	-1530.97563	121.55308	618.85322	-1604.25051	24.17746	768.58051	-1611.52492	-21.00773	681.96448	-1514.68796	-99.51090	75.99939	-1478.18206	-56.36066	68.74125	-1538.97695	-32.86766	83.36350	-1563.58429	-76.14442	107.03217	-1626.24911	47.47619	675.30677	-1454.00441	-124.27086	448.26769	-1610.14265	200.90840	439.37199	-1463.36919	-137.97882	233.90828	-1697.83959	208.81887	232.40684	
